<svg width="99" height="28" viewBox="0 0 99 28" fill="none" xmlns="http://www.w3.org/2000/svg">
<path d="M9 4.62698C9 3.39982 8.52593 2.22293 7.68201 1.35521C6.8381 0.487482 5.69348 0 4.5 0C3.30652 0 2.16194 0.487482 1.31802 1.35521C0.474105 2.22293 0 3.39982 0 4.62698V18.6185L3.70588 21.3487V28H5.29412V21.3487L9 18.6185V4.62698ZM7.41177 12.452L5.29412 14.6294V12.5881L7.41177 10.4107V12.452ZM1.62132 10.4107L3.73897 12.5881V14.6294L1.62132 12.452V10.4107ZM7.41177 8.09721L4.5 11.0911L1.58824 8.02916V5.98785L4.5 8.98177L7.41177 5.98785V8.09721ZM4.5 1.63305C5.14038 1.63596 5.76218 1.85464 6.27014 2.25559C6.77812 2.65654 7.14425 3.21764 7.3125 3.85298L4.5 6.73633L1.6875 3.85298C1.84958 3.21132 2.21308 2.64261 2.72162 2.23508C3.23015 1.82754 3.85527 1.60395 4.5 1.59902V1.63305ZM1.58824 17.7934V14.7315L3.70588 16.9089V19.3414L1.58824 17.7934ZM5.29412 19.3499V16.9089L7.41177 14.7315V17.7849L5.29412 19.3499Z" fill="#181818"/>
<path d="M24.3004 9.172C24.2577 9.80133 24.2257 10.4093 24.2044 10.996C24.1937 11.5827 24.1884 12.0307 24.1884 12.34C24.1884 12.564 24.1937 12.7773 24.2044 12.98C24.215 13.1827 24.2257 13.3533 24.2364 13.492H23.8684C23.623 12.4893 23.3244 11.7 22.9724 11.124C22.631 10.548 22.263 10.1427 21.8684 9.908C21.4844 9.66267 21.1004 9.54 20.7164 9.54H20.7004V18.692C20.7004 19.1293 20.743 19.4547 20.8284 19.668C20.9244 19.8813 21.1004 20.02 21.3564 20.084C21.6124 20.148 21.9857 20.18 22.4764 20.18V20.5C22.103 20.4893 21.5964 20.4787 20.9564 20.468C20.327 20.4573 19.6657 20.452 18.9724 20.452C18.311 20.452 17.687 20.4573 17.1004 20.468C16.5137 20.4787 16.039 20.4893 15.6764 20.5V20.18C16.167 20.18 16.5404 20.148 16.7964 20.084C17.0524 20.02 17.223 19.8813 17.3084 19.668C17.4044 19.4547 17.4524 19.1293 17.4524 18.692V9.54H17.4364C17.0524 9.54 16.663 9.66267 16.2684 9.908C15.8844 10.1427 15.5217 10.548 15.1804 11.124C14.839 11.6893 14.5404 12.4787 14.2844 13.492H13.9164C13.9377 13.3533 13.9484 13.1827 13.9484 12.98C13.959 12.7773 13.9644 12.564 13.9644 12.34C13.9644 12.0307 13.9537 11.5827 13.9324 10.996C13.9217 10.4093 13.895 9.80133 13.8524 9.172C14.3644 9.18267 14.9297 9.19333 15.5484 9.204C16.167 9.21467 16.7857 9.22 17.4044 9.22C18.023 9.22 18.583 9.22 19.0844 9.22C19.5857 9.22 20.1457 9.22 20.7644 9.22C21.383 9.22 22.0017 9.21467 22.6204 9.204C23.239 9.19333 23.799 9.18267 24.3004 9.172ZM31.9679 20.5V20.18C32.2985 20.1587 32.5439 20.116 32.7039 20.052C32.8639 19.988 32.9705 19.86 33.0239 19.668C33.0772 19.476 33.1039 19.188 33.1039 18.804V10.868C33.1039 10.4733 33.0772 10.1853 33.0239 10.004C32.9705 9.812 32.8585 9.684 32.6879 9.62C32.5279 9.54533 32.2879 9.50267 31.9679 9.492V9.172C32.2985 9.18267 32.7199 9.19333 33.2319 9.204C33.7545 9.21467 34.2772 9.22 34.7999 9.22C35.3439 9.22 35.8559 9.21467 36.3359 9.204C36.8159 9.19333 37.1999 9.18267 37.4879 9.172V9.492C37.1679 9.50267 36.9225 9.54533 36.7519 9.62C36.5919 9.684 36.4852 9.812 36.4319 10.004C36.3785 10.1853 36.3519 10.4733 36.3519 10.868V18.804C36.3519 19.188 36.3785 19.476 36.4319 19.668C36.4959 19.86 36.6079 19.988 36.7679 20.052C36.9279 20.116 37.1679 20.1587 37.4879 20.18V20.5C37.1999 20.4787 36.8159 20.468 36.3359 20.468C35.8559 20.4573 35.3439 20.452 34.7999 20.452C34.2772 20.452 33.7545 20.4573 33.2319 20.468C32.7199 20.468 32.2985 20.4787 31.9679 20.5ZM25.1199 20.5V20.18C25.4505 20.1587 25.6959 20.116 25.8559 20.052C26.0159 19.988 26.1225 19.86 26.1759 19.668C26.2292 19.476 26.2559 19.188 26.2559 18.804V10.868C26.2559 10.4733 26.2292 10.1853 26.1759 10.004C26.1225 9.812 26.0105 9.684 25.8399 9.62C25.6799 9.54533 25.4399 9.50267 25.1199 9.492V9.172C25.4292 9.18267 25.8345 9.19333 26.3359 9.204C26.8479 9.21467 27.3919 9.22 27.9679 9.22C28.4692 9.22 28.9599 9.21467 29.4399 9.204C29.9305 9.19333 30.3305 9.18267 30.6399 9.172V9.492C30.3199 9.50267 30.0745 9.54533 29.9039 9.62C29.7439 9.684 29.6372 9.812 29.5839 10.004C29.5305 10.1853 29.5039 10.4733 29.5039 10.868V18.804C29.5039 19.188 29.5305 19.476 29.5839 19.668C29.6479 19.86 29.7599 19.988 29.9199 20.052C30.0799 20.116 30.3199 20.1587 30.6399 20.18V20.5C30.3305 20.4787 29.9305 20.468 29.4399 20.468C28.9599 20.4573 28.4692 20.452 27.9679 20.452C27.3919 20.452 26.8479 20.4573 26.3359 20.468C25.8345 20.468 25.4292 20.4787 25.1199 20.5ZM28.1439 14.964V14.644H34.4639V14.964H28.1439ZM47.3295 9.172C47.2868 9.70533 47.2548 10.2227 47.2335 10.724C47.2228 11.2147 47.2175 11.5933 47.2175 11.86C47.2175 12.084 47.2228 12.2973 47.2335 12.5C47.2442 12.7027 47.2548 12.8733 47.2655 13.012H46.8975C46.7695 12.1267 46.5562 11.4333 46.2575 10.932C45.9588 10.42 45.6068 10.0627 45.2015 9.86C44.8068 9.64667 44.3908 9.54 43.9535 9.54H43.7455C43.4682 9.54 43.2602 9.56667 43.1215 9.62C42.9828 9.66267 42.8868 9.75333 42.8335 9.892C42.7908 10.0307 42.7695 10.2493 42.7695 10.548V19.124C42.7695 19.412 42.7908 19.6307 42.8335 19.78C42.8868 19.9187 42.9828 20.0147 43.1215 20.068C43.2602 20.1107 43.4682 20.132 43.7455 20.132H44.2735C44.6255 20.132 44.9935 20.02 45.3775 19.796C45.7722 19.5613 46.1348 19.1667 46.4655 18.612C46.7962 18.0573 47.0468 17.3 47.2175 16.34H47.5855C47.5535 16.724 47.5375 17.2147 47.5375 17.812C47.5375 18.0787 47.5428 18.4627 47.5535 18.964C47.5642 19.4547 47.5962 19.9667 47.6495 20.5C47.1055 20.4787 46.4922 20.468 45.8095 20.468C45.1268 20.4573 44.5188 20.452 43.9855 20.452C43.6975 20.452 43.3295 20.452 42.8815 20.452C42.4442 20.452 41.9642 20.4573 41.4415 20.468C40.9295 20.468 40.4068 20.4733 39.8735 20.484C39.3508 20.484 38.8548 20.4893 38.3855 20.5V20.18C38.7162 20.1587 38.9615 20.116 39.1215 20.052C39.2815 19.988 39.3882 19.86 39.4415 19.668C39.4948 19.476 39.5215 19.188 39.5215 18.804V10.868C39.5215 10.4733 39.4948 10.1853 39.4415 10.004C39.3882 9.812 39.2762 9.684 39.1055 9.62C38.9455 9.54533 38.7055 9.50267 38.3855 9.492V9.172C38.8548 9.18267 39.3508 9.19333 39.8735 9.204C40.4068 9.204 40.9295 9.20933 41.4415 9.22C41.9642 9.22 42.4442 9.22 42.8815 9.22C43.3295 9.22 43.6975 9.22 43.9855 9.22C44.4762 9.22 45.0308 9.22 45.6495 9.22C46.2788 9.20933 46.8388 9.19333 47.3295 9.172ZM45.0095 14.644C45.0095 14.644 45.0095 14.6973 45.0095 14.804C45.0095 14.9107 45.0095 14.964 45.0095 14.964H42.2895C42.2895 14.964 42.2895 14.9107 42.2895 14.804C42.2895 14.6973 42.2895 14.644 42.2895 14.644H45.0095ZM45.4735 12.532C45.4308 13.14 45.4095 13.604 45.4095 13.924C45.4202 14.244 45.4255 14.5373 45.4255 14.804C45.4255 15.0707 45.4308 15.364 45.4415 15.684C45.4522 16.004 45.4788 16.468 45.5215 17.076H45.1535C45.0895 16.6813 44.9562 16.324 44.7535 16.004C44.5615 15.684 44.3108 15.4333 44.0015 15.252C43.6922 15.06 43.3348 14.964 42.9295 14.964V14.644C43.2282 14.644 43.5002 14.58 43.7455 14.452C43.9908 14.324 44.2042 14.1533 44.3855 13.94C44.5775 13.7267 44.7322 13.4973 44.8495 13.252C44.9775 13.0067 45.0628 12.7667 45.1055 12.532H45.4735ZM52.3543 9.172C52.6636 9.18267 53.0689 9.19333 53.5703 9.204C54.0823 9.21467 54.5943 9.22 55.1063 9.22C55.6396 9.22 56.1516 9.21467 56.6423 9.204C57.1329 9.19333 57.4796 9.188 57.6823 9.188C59.1436 9.188 60.2316 9.42267 60.9462 9.892C61.6609 10.3613 62.0183 10.964 62.0183 11.7C62.0183 12.0733 61.8849 12.4627 61.6183 12.868C61.3516 13.2627 60.9463 13.6147 60.4023 13.924C59.8583 14.2227 59.1649 14.4253 58.3223 14.532V14.564C59.4209 14.6173 60.3009 14.788 60.9623 15.076C61.6236 15.364 62.1036 15.716 62.4023 16.132C62.7009 16.5373 62.8503 16.9587 62.8503 17.396C62.8503 18.1107 62.6583 18.6973 62.2743 19.156C61.8903 19.6147 61.3356 19.956 60.6103 20.18C59.8956 20.3933 59.0423 20.5 58.0503 20.5C57.7943 20.5 57.4156 20.4947 56.9143 20.484C56.4236 20.4627 55.8316 20.452 55.1383 20.452C54.6049 20.452 54.0823 20.4573 53.5703 20.468C53.0689 20.468 52.6636 20.4787 52.3543 20.5V20.18C52.6849 20.1587 52.9303 20.116 53.0903 20.052C53.2503 19.988 53.3569 19.86 53.4103 19.668C53.4636 19.476 53.4903 19.188 53.4903 18.804V10.868C53.4903 10.4733 53.4636 10.1853 53.4103 10.004C53.3569 9.812 53.2449 9.684 53.0743 9.62C52.9143 9.54533 52.6743 9.50267 52.3543 9.492V9.172ZM57.6023 9.492C57.2396 9.492 57.0049 9.58267 56.8983 9.764C56.7916 9.94533 56.7383 10.3133 56.7383 10.868V18.804C56.7383 19.1773 56.7649 19.46 56.8183 19.652C56.8716 19.844 56.9729 19.972 57.1223 20.036C57.2716 20.1 57.4903 20.132 57.7783 20.132C58.3756 20.132 58.8076 19.892 59.0743 19.412C59.3516 18.9213 59.4903 18.228 59.4903 17.332C59.4903 16.5107 59.2929 15.876 58.8983 15.428C58.5143 14.98 57.8689 14.756 56.9623 14.756H55.7943C55.7943 14.756 55.7943 14.7133 55.7943 14.628C55.7943 14.532 55.7943 14.484 55.7943 14.484H57.1703C57.5863 14.484 57.9063 14.3667 58.1303 14.132C58.3543 13.8867 58.5089 13.5667 58.5943 13.172C58.6796 12.7667 58.7223 12.3347 58.7223 11.876C58.7223 11.0867 58.6369 10.4947 58.4663 10.1C58.2956 9.69467 58.0076 9.492 57.6023 9.492ZM69.2999 9.172V9.492C68.9372 9.50267 68.6599 9.54533 68.4679 9.62C68.2865 9.684 68.1639 9.812 68.0999 10.004C68.0359 10.1853 68.0039 10.4733 68.0039 10.868V19.124C68.0039 19.412 68.0252 19.6307 68.0679 19.78C68.1105 19.9187 68.1905 20.0147 68.3079 20.068C68.4252 20.1107 68.5959 20.132 68.8199 20.132H69.3479C69.6252 20.132 69.9239 20.0253 70.2439 19.812C70.5639 19.5987 70.8732 19.3053 71.1719 18.932C71.4812 18.5587 71.7479 18.1373 71.9719 17.668C72.1959 17.188 72.3559 16.692 72.4519 16.18H72.8199C72.7879 16.564 72.7719 17.0547 72.7719 17.652C72.7719 17.9293 72.7772 18.3347 72.7879 18.868C72.7985 19.3907 72.8305 19.9347 72.8839 20.5C72.3399 20.4787 71.7265 20.468 71.0439 20.468C70.3612 20.4573 69.7532 20.452 69.2199 20.452C68.9319 20.452 68.5639 20.452 68.1159 20.452C67.6785 20.452 67.1985 20.4573 66.6759 20.468C66.1639 20.468 65.6412 20.4733 65.1079 20.484C64.5852 20.484 64.0892 20.4893 63.6199 20.5V20.18C63.9505 20.1587 64.1959 20.116 64.3559 20.052C64.5159 19.988 64.6225 19.86 64.6759 19.668C64.7292 19.476 64.7559 19.188 64.7559 18.804V10.868C64.7559 10.4733 64.7292 10.1853 64.6759 10.004C64.6225 9.812 64.5105 9.684 64.3399 9.62C64.1799 9.54533 63.9399 9.50267 63.6199 9.492V9.172C63.9292 9.18267 64.3345 9.19333 64.8359 9.204C65.3479 9.21467 65.8919 9.22 66.4679 9.22C67.0012 9.22 67.5239 9.21467 68.0359 9.204C68.5479 9.19333 68.9692 9.18267 69.2999 9.172ZM79.8115 8.948C81.0168 8.948 82.0728 9.17733 82.9795 9.636C83.8862 10.0947 84.5902 10.756 85.0915 11.62C85.5928 12.4733 85.8435 13.5133 85.8435 14.74C85.8435 15.9347 85.5875 16.98 85.0755 17.876C84.5635 18.772 83.8488 19.4707 82.9315 19.972C82.0248 20.4733 80.9795 20.724 79.7955 20.724C78.5902 20.724 77.5342 20.4947 76.6275 20.036C75.7208 19.5773 75.0168 18.916 74.5155 18.052C74.0142 17.188 73.7635 16.148 73.7635 14.932C73.7635 13.7373 74.0195 12.692 74.5315 11.796C75.0542 10.9 75.7688 10.2013 76.6755 9.7C77.5822 9.19867 78.6275 8.948 79.8115 8.948ZM79.7475 9.236C79.2142 9.236 78.7502 9.476 78.3555 9.956C77.9608 10.436 77.6568 11.0973 77.4435 11.94C77.2302 12.7827 77.1235 13.7587 77.1235 14.868C77.1235 15.9987 77.2462 16.9853 77.4915 17.828C77.7368 18.66 78.0675 19.3053 78.4835 19.764C78.8995 20.212 79.3582 20.436 79.8595 20.436C80.3928 20.436 80.8568 20.196 81.2515 19.716C81.6462 19.236 81.9502 18.5747 82.1635 17.732C82.3768 16.8787 82.4835 15.9027 82.4835 14.804C82.4835 13.6627 82.3608 12.676 82.1155 11.844C81.8702 11.012 81.5395 10.372 81.1235 9.924C80.7075 9.46533 80.2488 9.236 79.7475 9.236ZM93.2059 8.948C93.9525 8.948 94.5659 9.04933 95.0459 9.252C95.5259 9.45467 95.9472 9.7 96.3099 9.988C96.4272 10.084 96.5339 10.132 96.6299 10.132C96.8325 10.132 96.9659 9.812 97.0299 9.172H97.3979C97.3765 9.59867 97.3605 10.1213 97.3499 10.74C97.3392 11.348 97.3339 12.1587 97.3339 13.172H96.9659C96.8912 12.404 96.7579 11.764 96.5659 11.252C96.3845 10.7293 96.0272 10.2867 95.4939 9.924C95.2699 9.77467 95.0085 9.65733 94.7099 9.572C94.4112 9.48667 94.1232 9.444 93.8459 9.444C93.2272 9.444 92.7152 9.61467 92.3099 9.956C91.9045 10.2867 91.5792 10.724 91.3339 11.268C91.0992 11.8013 90.9285 12.388 90.8219 13.028C90.7259 13.6573 90.6779 14.2707 90.6779 14.868C90.6779 16.788 90.9125 18.1907 91.3819 19.076C91.8512 19.9613 92.4752 20.404 93.2539 20.404C93.4245 20.404 93.5739 20.388 93.7019 20.356C93.8299 20.324 93.9419 20.276 94.0379 20.212C94.1552 20.1267 94.2405 20.02 94.2939 19.892C94.3472 19.764 94.3739 19.604 94.3739 19.412V17.812C94.3739 17.2893 94.3312 16.9 94.2459 16.644C94.1712 16.388 94.0165 16.212 93.7819 16.116C93.5472 16.02 93.2059 15.9667 92.7579 15.956V15.636C93.0032 15.6467 93.3019 15.6573 93.6539 15.668C94.0059 15.668 94.3739 15.6733 94.7579 15.684C95.1419 15.684 95.4939 15.684 95.8139 15.684C96.3259 15.684 96.7952 15.6787 97.2219 15.668C97.6592 15.6573 98.0112 15.6467 98.2779 15.636V15.956C98.0965 15.9667 97.9579 16.004 97.8619 16.068C97.7659 16.132 97.7019 16.26 97.6699 16.452C97.6379 16.644 97.6219 16.9373 97.6219 17.332V20.5H97.3019C97.2912 20.3187 97.2485 20.1213 97.1739 19.908C97.0992 19.6947 96.9765 19.588 96.8059 19.588C96.7205 19.588 96.5979 19.6093 96.4379 19.652C96.2885 19.6947 96.0485 19.796 95.7179 19.956C95.3019 20.1587 94.8592 20.34 94.3899 20.5C93.9312 20.6493 93.4725 20.724 93.0139 20.724C91.6805 20.724 90.5659 20.4947 89.6699 20.036C88.7739 19.5773 88.1019 18.916 87.6539 18.052C87.2165 17.188 86.9979 16.148 86.9979 14.932C86.9979 13.7373 87.2592 12.692 87.7819 11.796C88.3152 10.9 89.0459 10.2013 89.9739 9.7C90.9125 9.19867 91.9899 8.948 93.2059 8.948Z" fill="#181818"/>
</svg>
